#!OML:ASF E:\acrobat2\Project_11_07_03\Capture day 1\Session 1\Acrobat.ASF
:FULLY-SPECIFIED
:DEGREES
423
root 8.37234 11.5426 -3.21051 40.7689 -1.90578 13.1046
lowerback 42.4439 -12.6208 8.30548
upperback 19.8282 -12.6317 -14.9018
thorax -2.99682 -4.56383 -15.224
lowerneck -11.7098 -0.136652 1.84089
upperneck -30.2982 2.42503 10.9154
head -7.66799 0.159697 3.34937
rclavicle 2.8625e-014 -2.24627e-014
rhumerus 88.8393 -2.83247 -80.5437
rradius 25.2973
rwrist 16.2365
rhand -25.4951 -58.9479
rfingers 7.12502
rthumb 1.03339 -88.9251
lclavicle 2.8625e-014 -2.24627e-014
lhumerus 44.1889 -16.4806 51.7504
lradius 57.0062
lwrist 10.9938
lhand -47.0808 -48.5729
lfingers 7.12502
lthumb -19.7849 -19.5599
rfemur -99.6793 -42.727 20.0555
rtibia 61.1773
rfoot -208.409 -9.8563
rtoes -28.0315
lfemur -114.523 33.7459 -38.7369
ltibia 52.9961
lfoot -162.554 19.3953
ltoes 38.1862
424
root 8.36704 11.4264 -3.00555 40.1211 -1.64765 13.3149
lowerback 42.7998 -13.1358 8.86625
upperback 19.7421 -13.1329 -15.7087
thorax -3.6897 -4.78908 -16.1133
lowerneck -11.2857 -0.278166 1.52379
upperneck -30.2594 2.53136 12.009
head -7.73034 0.156017 3.78209
rclavicle -1.98785e-014 -2.26615e-014
rhumerus 88.0734 -2.44916 -82.6592
rradius 23.8434
rwrist 17.9603
rhand -24.7804 -59.1823
rfingers 7.12502
rthumb 1.72362 -89.1551
lclavicle -1.98785e-014 -2.26615e-014
lhumerus 43.1895 -16.6318 51.2064
lradius 59.7559
lwrist 9.78129
lhand -46.9034 -49.105
lfingers 7.12502
lthumb -19.6145 -20.0745
rfemur -97.7748 -43.0784 18.5454
rtibia 60.0444
rfoot -208.459 -9.27466
rtoes -27.8848
lfemur -116.817 33.3029 -40.2986
ltibia 52.9054
lfoot -161.351 19.3061
ltoes 39.1849
425
root 8.36576 11.3129 -2.79687 39.6386 -1.40055 13.3759
lowerback 43.038 -13.5181 9.37878
upperback 19.6452 -13.4877 -16.3177
thorax -4.26512 -4.95855 -16.8457
lowerneck -10.8056 -0.411763 1.21064
upperneck -30.3267 2.59167 12.8209
head -7.83633 0.142291 4.123
rclavicle 5.96354e-014 1.41336e-013
rhumerus 87.1372 -2.06626 -84.436
rradius 22.7202
rwrist 18.9818
rhand -24.6732 -59.6057
rfingers 7.12502
rthumb 1.82719 -89.5777
lclavicle 5.96354e-014 1.41336e-013
lhumerus 42.788 -16.7207 50.4524
lradius 62.2227
lwrist 8.09159
lhand -46.9154 -50.1929
lfingers 7.12502
lthumb -19.626 -21.1636
rfemur -96.1654 -43.3023 17.3309
rtibia 58.8841
rfoot -208.163 -8.48767
rtoes -27.6547
lfemur -118.974 32.7971 -41.6845
ltibia 52.9937
lfoot -160.06 19.1353
ltoes 40.3783
426
root 8.36799 11.2023 -2.58427 39.3194 -1.16205 13.285
lowerback 43.1728 -13.7451 9.79599
upperback 19.5347 -13.6739 -16.6943
thorax -4.68893 -5.05751 -17.3705
lowerneck -10.3406 -0.51495 0.944162
upperneck -30.4837 2.62102 13.3062
head -7.97006 0.128605 4.34702
rclavicle -1.98785e-014 5.96354e-016
rhumerus 86.0446 -1.65627 -85.6915
rradius 21.9863
rwrist 19.1101
rhand -25.5588 -60.5037
rfingers 7.12502
rthumb 0.971912 -269.519
lclavicle -1.98785e-014 5.96354e-016
lhumerus 42.9411 -16.6577 49.6618
lradius 64.5009
lwrist 6.1302
lhand -47.0788 -51.5834
lfingers 7.12502
lthumb -19.783 -22.5702
rfemur -94.7883 -43.4056 16.3907
rtibia 57.7706
rfoot -207.627 -7.55727
rtoes -27.5883
lfemur -120.968 32.2454 -42.8567
ltibia 53.2537
lfoot -158.796 18.9191
ltoes 41.6037
427
root 8.3723 11.0951 -2.36867 39.1655 -0.918621 13.0748
lowerback 44.3196 -13.9147 9.84065
upperback 18.3966 -13.7282 -16.7991
thorax -4.96072 -5.03342 -17.3367
lowerneck -9.97231 -0.561777 0.805442
upperneck -30.7007 2.64244 13.4436
head -8.11008 0.124377 4.42877
rclavicle -2.38542e-015 1.54058e-014
rhumerus 84.8284 -1.18307 -86.4898
rradius 21.7118
rwrist 18.4989
rhand -27.5161 -62.1125
rfingers 7.12502
rthumb -0.918597 -267.91
lclavicle -2.38542e-015 1.54058e-014
lhumerus 43.5914 -16.3614 48.9542
lradius 66.6634
lwrist 4.20677
lhand -47.312 -52.9178
lfingers 7.12502
lthumb -20.0072 -23.9278
rfemur -93.5851 -43.4146 15.6883
rtibia 56.742
rfoot -206.977 -6.61003
rtoes -27.7076
lfemur -122.757 31.6369 -43.7987
ltibia 53.6925
lfoot -157.71 18.7324
ltoes 42.6077
428
root 8.37872 10.9913 -2.14913 39.1542 -0.675954 12.7589
lowerback 43.174 -13.69 10.1363
upperback 19.2928 -13.5315 -16.7188
thorax -4.98343 -5.02067 -17.6483
lowerneck -9.74393 -0.546707 0.827904
upperneck -30.9496 2.66377 13.2573
head -8.23969 0.131461 4.36784
rclavicle -5.40694e-014 -7.02704e-014
rhumerus 83.4909 -0.644334 -87.0987
rradius 21.9978
rwrist 17.6033
rhand -30.1954 -64.4326
rfingers 7.12502
rthumb -3.50613 -265.617
lclavicle -5.40694e-014 -7.02704e-014
lhumerus 44.6911 -15.7869 48.3883
lradius 68.7272
lwrist 2.65421
lhand -47.5198 -53.792
lfingers 7.12502
lthumb -20.2069 -24.823
rfemur -92.4468 -43.3392 15.1501
rtibia 55.8481
rfoot -206.304 -5.7696
rtoes -27.9797
lfemur -124.289 31.0068 -44.497
ltibia 54.3242
lfoot -156.875 18.596
ltoes 43.3535
429
root 8.38705 10.8914 -1.92521 39.2779 -0.422013 12.3491
lowerback 43.0663 -13.4175 10.0417
upperback 19.1634 -13.2175 -16.381
thorax -4.86383 -4.88798 -17.3921
lowerneck -9.6436 -0.496789 0.961021
upperneck -31.2329 2.66486 12.8248
head -8.35941 0.138852 4.20097
rclavicle -5.48646e-014 -2.57426e-014
rhumerus 81.9711 -0.0822125 -87.7095
rradius 22.9734
rwrist 16.813
rhand -33.0326 -67.1992
rfingers 7.12502
rthumb -6.24569 -262.913
lclavicle -5.48646e-014 -2.57426e-014
lhumerus 46.1912 -14.9422 48.0102
lradius 70.6464
lwrist 1.67693
lhand -47.6489 -53.9973
lfingers 7.12502
lthumb -20.331 -25.0414
rfemur -91.2805 -43.1941 14.7091
rtibia 55.1065
rfoot -205.656 -5.26762
rtoes -27.792
lfemur -125.53 30.3768 -44.9464
ltibia 55.1678
lfoot -156.338 18.5363
ltoes 43.8443
430
root 8.39656 10.7957 -1.69721 39.5467 -0.16786 11.8838
lowerback 42.8708 -12.9954 9.77349
upperback 19.0212 -12.7661 -15.8368
thorax -4.59917 -4.6947 -16.888
lowerneck -9.65543 -0.426456 1.2112
upperneck -31.5315 2.62734 12.1759
head -8.46332 0.134217 3.93759
rclavicle -2.38542e-014 -3.6477e-014
rhumerus 80.1799 0.444551 -88.3267
rradius 24.7206
rwrist 16.2459
rhand -35.5151 -69.8534
rfingers 7.12502
rthumb -8.64191 -260.343
lclavicle -2.38542e-014 -3.6477e-014
lhumerus 48.0461 -13.874 47.8352
lradius 72.3142
lwrist 1.26546
lhand -47.7084 -53.5969
lfingers 7.12502
lthumb -20.3882 -24.6472
rfemur -90.1158 -42.9845 14.374
rtibia 54.5565
rfoot -205.073 -4.81694
rtoes -28.1544
lfemur -126.467 29.752 -45.1982
ltibia 56.2359
lfoot -156.239 18.7931
ltoes 44.6778
431
root 8.40755 10.7047 -1.4638 39.9488 0.0512047 11.3856
lowerback 42.6043 -12.429 9.32625
upperback 18.8512 -12.1936 -15.1192
thorax -4.2399 -4.45482 -16.1574
lowerneck -9.70791 -0.344548 1.53955
upperneck -31.8461 2.55785 11.3744
head -8.56419 0.117316 3.6076
rclavicle -1.98785e-014 1.83876e-014
rhumerus 78.077 0.891614 -88.7533
rradius 27.1706
rwrist 15.7112
rhand -37.4079 -71.7085
rfingers 7.12502
rthumb -10.4682 -258.572
lclavicle -1.98785e-014 1.83876e-014
lhumerus 50.1928 -12.6506 47.9063
lradius 73.6262
lwrist 1.20875
lhand -47.7321 -52.7412
lfingers 7.12502
lthumb -20.4109 -23.7939
rfemur -88.8757 -42.7003 14.0236
rtibia 54.1746
rfoot -204.542 -4.7324
rtoes -27.9508
lfemur -127.073 29.1856 -45.2787
ltibia 57.4581
lfoot -156.463 19.551
ltoes 46.185
